<?xml version="1.0" encoding="UTF-8" standalone="no"?>
<!-- Created with Inkscape (http://www.inkscape.org/) -->

<svg
   width="8cm"
   height="8cm"
   viewBox="0 0 80 80.000001"
   version="1.1"
   id="svg1"
   xml:space="preserve"
   inkscape:version="1.4 (e7c3feb100, 2024-10-09)"
   sodipodi:docname="jmathpi_logo.svg"
   inkscape:export-filename="jmathpi_logo.pdf"
   inkscape:export-xdpi="96"
   inkscape:export-ydpi="96"
   xmlns:inkscape="http://www.inkscape.org/namespaces/inkscape"
   xmlns:sodipodi="http://sodipodi.sourceforge.net/DTD/sodipodi-0.dtd"
   xmlns="http://www.w3.org/2000/svg"
   xmlns:svg="http://www.w3.org/2000/svg"><sodipodi:namedview
     id="namedview1"
     pagecolor="#ffffff"
     bordercolor="#000000"
     borderopacity="0.25"
     inkscape:showpageshadow="2"
     inkscape:pageopacity="0.0"
     inkscape:pagecheckerboard="true"
     inkscape:deskcolor="#d1d1d1"
     inkscape:document-units="mm"
     showguides="true"
     showgrid="false"
     inkscape:zoom="1.4142136"
     inkscape:cx="132.22897"
     inkscape:cy="214.25335"
     inkscape:window-width="1280"
     inkscape:window-height="1006"
     inkscape:window-x="0"
     inkscape:window-y="18"
     inkscape:window-maximized="1"
     inkscape:current-layer="layer1"><sodipodi:guide
       position="39.999999,39.999999"
       orientation="-1,0"
       id="guide1"
       inkscape:locked="false"
       inkscape:label=""
       inkscape:color="rgb(0,134,229)" /><sodipodi:guide
       position="39.999999,39.999999"
       orientation="0,1"
       id="guide2"
       inkscape:locked="false"
       inkscape:label=""
       inkscape:color="rgb(0,134,229)" /><inkscape:grid
       id="grid3"
       units="px"
       originx="0"
       originy="0"
       spacingx="0.26458333"
       spacingy="0.26458333"
       empcolor="#0099e5"
       empopacity="0.30196078"
       color="#0099e5"
       opacity="0.14901961"
       empspacing="5"
       dotted="false"
       gridanglex="30"
       gridanglez="30"
       visible="false" /></sodipodi:namedview><defs
     id="defs1" /><g
     inkscape:label="Layer 1"
     inkscape:groupmode="layer"
     id="layer1"><ellipse
       style="fill:#ffffff;stroke-width:0.302802;paint-order:fill markers stroke"
       id="path3"
       cx="39.965759"
       cy="39.965759"
       rx="39.965763"
       ry="39.965759" /><path
       id="path2"
       style="fill:#008000;stroke-width:0.322245"
       d="M 40.000142 0 A 40 40 0 0 0 0 40.000142 A 40 40 0 0 0 3.5853109 56.537634 A 80 80 0 0 1 56.531433 3.5873779 A 40 40 0 0 0 40.000142 0 z M 56.531433 3.5873779 A 40 40 0 0 1 79.999768 40.000142 L 79.999768 0 A 80 80 0 0 0 56.531433 3.5873779 z M 79.999768 40.000142 A 40 40 0 0 1 40.000142 79.999768 L 79.999768 79.999768 L 79.999768 40.000142 z M 40.000142 79.999768 A 40 40 0 0 1 3.5853109 56.537634 A 80 80 0 0 0 0 79.999768 L 40.000142 79.999768 z " /><path
       style="display:inline;fill:#ff0000;stroke:none;stroke-width:0.0603589"
       d="m 26.141189,38.791547 1.247937,0.09244 c 1.294158,-1.46363 1.802576,-5.792894 9.42886,-4.94553 -0.277319,18.549588 -8.412022,20.50623 -7.903603,24.311668 0.18488,2.156931 1.895016,3.481901 3.743812,3.558933 5.839115,-0.200285 5.577202,-8.073077 7.395184,-27.91682 h 7.533845 c -0.400573,6.994611 -1.494444,13.989223 -1.617697,20.845175 0.09244,4.560362 2.865634,6.994613 6.517007,7.025426 6.008587,0.200286 7.903603,-6.809733 7.903603,-9.79862 H 59.09598 c -0.123253,2.465061 -1.309565,4.236823 -3.836254,4.344671 -6.886765,0.09244 -3.096733,-12.109614 -3.050512,-22.324213 l 8.180923,0.04622 -0.04622,-5.222849 C 26.340845,28.643337 30.656803,27.97672 26.141189,38.791547 Z"
       id="path1" /></g></svg>
